<mxfile host="app.diagrams.net" modified="2020-11-12T18:40:23.626Z" agent="5.0 (Windows NT 10.0; Win64; x64) AppleWebKit/537.36 (KHTML, like Gecko) Chrome/86.0.4240.193 Safari/537.36" etag="EfsDYtojEfYZCVkigmh6" version="13.9.7" type="github">
  <diagram id="C5RBs43oDa-KdzZeNtuy" name="Page-1">
    <mxGraphModel dx="868" dy="450" grid="1" gridSize="10" guides="1" tooltips="1" connect="1" arrows="1" fold="1" page="1" pageScale="1" pageWidth="827" pageHeight="1169" math="0" shadow="0">
      <root>
        <mxCell id="WIyWlLk6GJQsqaUBKTNV-0" />
        <mxCell id="WIyWlLk6GJQsqaUBKTNV-1" parent="WIyWlLk6GJQsqaUBKTNV-0" />
        <mxCell id="WIyWlLk6GJQsqaUBKTNV-3" value="AWS Management Console Sign In" style="rounded=1;whiteSpace=wrap;html=1;fontSize=12;glass=0;strokeWidth=1;shadow=0;" parent="WIyWlLk6GJQsqaUBKTNV-1" vertex="1">
          <mxGeometry x="160" y="50" width="120" height="40" as="geometry" />
        </mxCell>
        <mxCell id="aKl3k71Qr4Qh-Q79nfT3-0" value="" style="endArrow=classic;html=1;exitX=0.5;exitY=1;exitDx=0;exitDy=0;entryX=0.5;entryY=0;entryDx=0;entryDy=0;" edge="1" parent="WIyWlLk6GJQsqaUBKTNV-1" source="aKl3k71Qr4Qh-Q79nfT3-6" target="aKl3k71Qr4Qh-Q79nfT3-25">
          <mxGeometry width="50" height="50" relative="1" as="geometry">
            <mxPoint x="219.5" y="420" as="sourcePoint" />
            <mxPoint x="220" y="550" as="targetPoint" />
          </mxGeometry>
        </mxCell>
        <mxCell id="aKl3k71Qr4Qh-Q79nfT3-3" value="Launch Ubuntu 18.04" style="rounded=0;whiteSpace=wrap;html=1;" vertex="1" parent="WIyWlLk6GJQsqaUBKTNV-1">
          <mxGeometry x="160" y="550" width="120" height="60" as="geometry" />
        </mxCell>
        <mxCell id="aKl3k71Qr4Qh-Q79nfT3-4" value="Authentication" style="rounded=0;whiteSpace=wrap;html=1;" vertex="1" parent="WIyWlLk6GJQsqaUBKTNV-1">
          <mxGeometry x="160" y="130" width="120" height="60" as="geometry" />
        </mxCell>
        <mxCell id="aKl3k71Qr4Qh-Q79nfT3-6" value="EC2 Launch Wizard" style="rounded=0;whiteSpace=wrap;html=1;" vertex="1" parent="WIyWlLk6GJQsqaUBKTNV-1">
          <mxGeometry x="160" y="370" width="120" height="60" as="geometry" />
        </mxCell>
        <mxCell id="aKl3k71Qr4Qh-Q79nfT3-7" value="Install docker on Ubuntu server" style="rounded=0;whiteSpace=wrap;html=1;" vertex="1" parent="WIyWlLk6GJQsqaUBKTNV-1">
          <mxGeometry x="161.63" y="650" width="120" height="60" as="geometry" />
        </mxCell>
        <mxCell id="aKl3k71Qr4Qh-Q79nfT3-8" value="" style="endArrow=classic;html=1;exitX=0.5;exitY=1;exitDx=0;exitDy=0;" edge="1" parent="WIyWlLk6GJQsqaUBKTNV-1" source="aKl3k71Qr4Qh-Q79nfT3-3">
          <mxGeometry width="50" height="50" relative="1" as="geometry">
            <mxPoint x="230" y="510" as="sourcePoint" />
            <mxPoint x="220" y="650" as="targetPoint" />
          </mxGeometry>
        </mxCell>
        <mxCell id="aKl3k71Qr4Qh-Q79nfT3-13" value="Identity Verification" style="rhombus;whiteSpace=wrap;html=1;" vertex="1" parent="WIyWlLk6GJQsqaUBKTNV-1">
          <mxGeometry x="160" y="240" width="120" height="80" as="geometry" />
        </mxCell>
        <mxCell id="aKl3k71Qr4Qh-Q79nfT3-15" value="" style="endArrow=classic;html=1;exitX=0.5;exitY=1;exitDx=0;exitDy=0;entryX=0.5;entryY=0;entryDx=0;entryDy=0;" edge="1" parent="WIyWlLk6GJQsqaUBKTNV-1" source="aKl3k71Qr4Qh-Q79nfT3-13" target="aKl3k71Qr4Qh-Q79nfT3-6">
          <mxGeometry width="50" height="50" relative="1" as="geometry">
            <mxPoint x="220" y="420" as="sourcePoint" />
            <mxPoint x="270" y="430" as="targetPoint" />
          </mxGeometry>
        </mxCell>
        <mxCell id="aKl3k71Qr4Qh-Q79nfT3-16" value="" style="endArrow=classic;html=1;exitX=0.5;exitY=1;exitDx=0;exitDy=0;entryX=0.5;entryY=0;entryDx=0;entryDy=0;" edge="1" parent="WIyWlLk6GJQsqaUBKTNV-1" source="aKl3k71Qr4Qh-Q79nfT3-4" target="aKl3k71Qr4Qh-Q79nfT3-13">
          <mxGeometry width="50" height="50" relative="1" as="geometry">
            <mxPoint x="210" y="300" as="sourcePoint" />
            <mxPoint x="260" y="290" as="targetPoint" />
          </mxGeometry>
        </mxCell>
        <mxCell id="aKl3k71Qr4Qh-Q79nfT3-17" value="Yes" style="text;html=1;resizable=0;autosize=1;align=center;verticalAlign=middle;points=[];fillColor=none;strokeColor=none;rounded=0;" vertex="1" parent="WIyWlLk6GJQsqaUBKTNV-1">
          <mxGeometry x="220" y="330" width="40" height="20" as="geometry" />
        </mxCell>
        <mxCell id="aKl3k71Qr4Qh-Q79nfT3-18" value="" style="endArrow=classic;html=1;" edge="1" parent="WIyWlLk6GJQsqaUBKTNV-1">
          <mxGeometry width="50" height="50" relative="1" as="geometry">
            <mxPoint x="280" y="279.5" as="sourcePoint" />
            <mxPoint x="350" y="279.5" as="targetPoint" />
          </mxGeometry>
        </mxCell>
        <mxCell id="aKl3k71Qr4Qh-Q79nfT3-20" value="No" style="text;html=1;resizable=0;autosize=1;align=center;verticalAlign=middle;points=[];fillColor=none;strokeColor=none;rounded=0;" vertex="1" parent="WIyWlLk6GJQsqaUBKTNV-1">
          <mxGeometry x="300" y="290" width="30" height="20" as="geometry" />
        </mxCell>
        <mxCell id="aKl3k71Qr4Qh-Q79nfT3-22" value="Incorrect Credential" style="rounded=0;whiteSpace=wrap;html=1;" vertex="1" parent="WIyWlLk6GJQsqaUBKTNV-1">
          <mxGeometry x="354" y="240" width="120" height="60" as="geometry" />
        </mxCell>
        <mxCell id="aKl3k71Qr4Qh-Q79nfT3-23" value="Create a user named dockeruser&lt;br&gt;&lt;br&gt;Allow dockeruser to run docker as non-root user" style="rounded=0;whiteSpace=wrap;html=1;" vertex="1" parent="WIyWlLk6GJQsqaUBKTNV-1">
          <mxGeometry x="83.26" y="750" width="276.75" height="60" as="geometry" />
        </mxCell>
        <mxCell id="aKl3k71Qr4Qh-Q79nfT3-25" value="Create security group and allow SSH access from a particular public IP address" style="rounded=0;whiteSpace=wrap;html=1;" vertex="1" parent="WIyWlLk6GJQsqaUBKTNV-1">
          <mxGeometry x="90" y="460" width="260" height="60" as="geometry" />
        </mxCell>
        <mxCell id="aKl3k71Qr4Qh-Q79nfT3-26" value="copy all attached files into present working directory" style="rounded=0;whiteSpace=wrap;html=1;" vertex="1" parent="WIyWlLk6GJQsqaUBKTNV-1">
          <mxGeometry x="80" y="850" width="280" height="60" as="geometry" />
        </mxCell>
        <mxCell id="aKl3k71Qr4Qh-Q79nfT3-27" value="Build a docker image using mentioned Dockerfile&lt;br&gt;Start a container using above built docker image&lt;br&gt;Access Sierra Chart by executing the installer file" style="rounded=0;whiteSpace=wrap;html=1;" vertex="1" parent="WIyWlLk6GJQsqaUBKTNV-1">
          <mxGeometry x="81.63" y="950" width="280" height="60" as="geometry" />
        </mxCell>
        <mxCell id="aKl3k71Qr4Qh-Q79nfT3-28" value="Access relevant data as per requirement" style="rounded=1;whiteSpace=wrap;html=1;" vertex="1" parent="WIyWlLk6GJQsqaUBKTNV-1">
          <mxGeometry x="120" y="1040" width="190" height="60" as="geometry" />
        </mxCell>
        <mxCell id="aKl3k71Qr4Qh-Q79nfT3-29" value="" style="endArrow=classic;html=1;exitX=0.5;exitY=1;exitDx=0;exitDy=0;entryX=0.5;entryY=0;entryDx=0;entryDy=0;" edge="1" parent="WIyWlLk6GJQsqaUBKTNV-1" source="WIyWlLk6GJQsqaUBKTNV-3" target="aKl3k71Qr4Qh-Q79nfT3-4">
          <mxGeometry width="50" height="50" relative="1" as="geometry">
            <mxPoint x="231.63" y="130" as="sourcePoint" />
            <mxPoint x="290" y="110" as="targetPoint" />
          </mxGeometry>
        </mxCell>
        <mxCell id="aKl3k71Qr4Qh-Q79nfT3-30" value="" style="endArrow=classic;html=1;" edge="1" parent="WIyWlLk6GJQsqaUBKTNV-1">
          <mxGeometry width="50" height="50" relative="1" as="geometry">
            <mxPoint x="219" y="1010" as="sourcePoint" />
            <mxPoint x="219" y="1040" as="targetPoint" />
            <Array as="points">
              <mxPoint x="219" y="1020" />
            </Array>
          </mxGeometry>
        </mxCell>
        <mxCell id="aKl3k71Qr4Qh-Q79nfT3-31" value="" style="endArrow=classic;html=1;exitX=0.5;exitY=1;exitDx=0;exitDy=0;" edge="1" parent="WIyWlLk6GJQsqaUBKTNV-1" source="aKl3k71Qr4Qh-Q79nfT3-7">
          <mxGeometry width="50" height="50" relative="1" as="geometry">
            <mxPoint x="215" y="740" as="sourcePoint" />
            <mxPoint x="222" y="750" as="targetPoint" />
          </mxGeometry>
        </mxCell>
        <mxCell id="aKl3k71Qr4Qh-Q79nfT3-35" value="" style="endArrow=classic;html=1;entryX=0.5;entryY=0;entryDx=0;entryDy=0;" edge="1" parent="WIyWlLk6GJQsqaUBKTNV-1" target="aKl3k71Qr4Qh-Q79nfT3-26">
          <mxGeometry width="50" height="50" relative="1" as="geometry">
            <mxPoint x="219" y="810" as="sourcePoint" />
            <mxPoint x="219" y="840" as="targetPoint" />
          </mxGeometry>
        </mxCell>
        <mxCell id="aKl3k71Qr4Qh-Q79nfT3-36" value="" style="endArrow=classic;html=1;" edge="1" parent="WIyWlLk6GJQsqaUBKTNV-1">
          <mxGeometry width="50" height="50" relative="1" as="geometry">
            <mxPoint x="219" y="910" as="sourcePoint" />
            <mxPoint x="219" y="950" as="targetPoint" />
          </mxGeometry>
        </mxCell>
      </root>
    </mxGraphModel>
  </diagram>
</mxfile>
